{"title":"Avengers 3: Infinity War (2018) 720p Hindi Dubbed New HDTSRip","magnet":"magnet:?xt=urn:btih:df80cbf9f486956c118dd231f25adad4bf57ba4d&dn=Avengers+3%3A+Infinity+War+%282018%29+720p+Hindi+Dubbed+New+HDTSRip&tr=udp%3A%2F%2Ftracker.leechers-paradise.org%3A6969&tr=udp%3A%2F%2Fzer0day.ch%3A1337&tr=udp%3A%2F%2Fopen.demonii.com%3A1337&tr=udp%3A%2F%2Ftracker.coppersurfer.tk%3A6969&tr=udp%3A%2F%2Fexodus.desync.com%3A6969","uploader":"shmasti","categoryP":"video","categoryS":"movies","size":"865872166","seeders":"0","leechers":"0","description":"General\r\nComplete name                  : Avengers 3 Infinity War (2018) 720p Hindi Dubbed New HDTSRip x264 MP3 By Full4movies.mkv\r\nFormat                         : Matroska\r\nFormat version                 : Version 4 / Version 2\r\nFile size                      : 826 MiB\r\nDuration                       : 2 h 28 min\r\nOverall bit rate mode          : Variable\r\nOverall bit rate               : 776 kb/s\r\nMovie name                     : Avengers 3: Infinity War (2018) Hindi - www.Full4movies.co\r\nEncoded date                   : UTC 2018-04-29 10:59:24\r\nWriting application            : mkvmerge v8.1.0 (&apos;Psychedelic Postcard&apos;) 32bit\r\nWriting library                : libebml v1.3.1 + libmatroska v1.4.2\r\n\r\nVideo\r\nID                             : 1\r\nFormat                         : AVC\r\nFormat/Info                    : Advanced Video Codec\r\nFormat profile                 : <a href=\"/cdn-cgi/l/email-protection\" class=\"__cf_email__\" data-cfemail=\"531b3a343b131f607d62\">[email&#xA0;protected]</a>\r\nFormat settings, CABAC         : Yes\r\nFormat settings, RefFrames     : 4 frames\r\nCodec ID                       : V_MPEG4/ISO/AVC\r\nDuration                       : 2 h 28 min\r\nBit rate                       : 678 kb/s\r\nWidth                          : 1 280 pixels\r\nHeight                         : 528 pixels\r\nDisplay aspect ratio           : 2.40:1\r\nFrame rate mode                : Constant\r\nFrame rate                     : 30.000 FPS\r\nColor space                    : YUV\r\nChroma subsampling             : 4:2:0\r\nBit depth                      : 8 bits\r\nScan type                      : Progressive\r\nBits/(Pixel*Frame)             : 0.033\r\nStream size                    : 722 MiB (87%)\r\nWriting library                : x264 core 155 r2901 7d0ff22\r\nLanguage                       : English\r\nDefault                        : Yes\r\nForced                         : No\r\n\r\nAudio\r\nID                             : 2\r\nFormat                         : MPEG Audio\r\nFormat version                 : Version 1\r\nFormat profile                 : Layer 3\r\nMode                           : Joint stereo\r\nMode extension                 : MS Stereo\r\nCodec ID                       : A_MPEG/L3\r\nCodec ID/Hint                  : MP3\r\nDuration                       : 2 h 28 min\r\nBit rate mode                  : Variable\r\nBit rate                       : 96.0 kb/s\r\nChannel(s)                     : 2 channels\r\nSampling rate                  : 44.1 kHz\r\nFrame rate                     : 38.281 FPS (1152 SPF)\r\nCompression mode               : Lossy\r\nStream size                    : 101 MiB (12%)\r\nWriting library                : LAME3.99r\r\nEncoding settings              : -m j -V 4 -q 3 -lowpass 15.1 --abr 96\r\nLanguage                       : Hindi\r\nDefault                        : No\r\nForced                         : No","last_updated":"2018-04-29T12:00:56.761Z","parsed":{"xt":"urn:btih:df80cbf9f486956c118dd231f25adad4bf57ba4d","dn":"Avengers 3: Infinity War (2018) 720p Hindi Dubbed New HDTSRip","tr":["udp://exodus.desync.com:6969","udp://open.demonii.com:1337","udp://tracker.coppersurfer.tk:6969","udp://tracker.leechers-paradise.org:6969","udp://zer0day.ch:1337"],"infoHash":"df80cbf9f486956c118dd231f25adad4bf57ba4d","infoHashBuffer":{"type":"Buffer","data":[223,128,203,249,244,134,149,108,17,141,210,49,242,90,218,212,191,87,186,77]},"name":"Avengers 3: Infinity War (2018) 720p Hindi Dubbed New HDTSRip","announce":["udp://exodus.desync.com:6969","udp://open.demonii.com:1337","udp://tracker.coppersurfer.tk:6969","udp://tracker.leechers-paradise.org:6969","udp://zer0day.ch:1337"],"urlList":[]}}